<svg xmlns="http://www.w3.org/2000/svg" viewBox="0 0 128 128"><defs><style>.cls-1{isolation:isolate;}.cls-2{mix-blend-mode:multiply;}.cls-3{fill:#e05951;}.cls-4{fill:#489de3;}.cls-5{fill:#e2bc00;}.cls-6{fill:#093357;}</style></defs><title>sail-boat</title><g class="cls-1"><g id="icons" class="cls-2"><path class="cls-3" d="M63,24.15v54a1,1,0,0,1-.93,1L29.85,81.22a1,1,0,0,1-.93-1.5L62.07,23.9A.5.5,0,0,1,63,24.15Z"/><path class="cls-4" d="M97.16,76.83,76.06,78.2a1,1,0,0,1-1.06-1V32.81a.5.5,0,0,1,.94-.23L98,75.37A1,1,0,0,1,97.16,76.83Z"/><path class="cls-5" d="M91.11,112H28.31a2,2,0,0,1-1.84-1.21l-10.3-18A2,2,0,0,1,18,90l92-6a2,2,0,0,1,1.57,3.24l-18.89,24A2,2,0,0,1,91.11,112Z"/><path class="cls-6" d="M71,18V86.54l-4,.26V18a2,2,0,0,1,4,0Z"/></g></g></svg>