<svg id="icons" xmlns="http://www.w3.org/2000/svg" xmlns:xlink="http://www.w3.org/1999/xlink" viewBox="0 0 128 128"><defs><style>.cls-1{fill:url(#linear-gradient);}.cls-2{fill:none;stroke:#000;stroke-miterlimit:10;opacity:0.12;}.Orange{fill:url(#linear-gradient-2);}.cls-3{fill:url(#linear-gradient-3);}.cls-4{fill:url(#linear-gradient-4);}</style><linearGradient id="linear-gradient" x1="51.5" y1="84" x2="51.5" y2="24" gradientUnits="userSpaceOnUse"><stop offset="0" stop-color="#ffde43"/><stop offset="0.99962" stop-color="#fff588"/></linearGradient><linearGradient id="linear-gradient-2" x1="18.5" y1="84" x2="18.5" y2="28" gradientTransform="matrix(-1, 0, 0, 1, 103, 0)" gradientUnits="userSpaceOnUse"><stop offset="0" stop-color="#ffa838"/><stop offset="0.99924" stop-color="#ffd574"/></linearGradient><linearGradient id="linear-gradient-3" x1="70" y1="88" x2="70" y2="20" gradientUnits="userSpaceOnUse"><stop offset="0" stop-color="#bd7932"/><stop offset="0.99962" stop-color="#cfaa6e"/></linearGradient><linearGradient id="linear-gradient-4" x1="64" y1="108" x2="64" y2="88" gradientUnits="userSpaceOnUse"><stop offset="0" stop-color="#234cc3"/><stop offset="1" stop-color="#479ce2"/></linearGradient></defs><title>sailboat</title><polygon class="cls-1" points="35 84 68 24 68 84 35 84"/><polygon class="cls-2" points="37.537 82.5 66.5 29.84 66.5 82.5 37.537 82.5"/><polygon class="Orange" points="97 84 72 28 72 84 97 84"/><polygon class="cls-2" points="73.5 82.5 73.5 35.04 94.688 82.5 73.5 82.5"/><path class="cls-3" d="M70,20h0a2,2,0,0,1,2,2V88a0,0,0,0,1,0,0H68a0,0,0,0,1,0,0V22A2,2,0,0,1,70,20Z"/><path class="cls-4" d="M88.11146,108H39.88854a16,16,0,0,1-14.31083-8.84458L20,88h88l-5.57771,11.15542A16,16,0,0,1,88.11146,108Z"/><path class="cls-2" d="M39.88867,106.5a14.42069,14.42069,0,0,1-12.96924-8.01562L22.42725,89.5h83.146l-4.49316,8.98438A14.41888,14.41888,0,0,1,88.11133,106.5Z"/></svg>